<svg xmlns="http://www.w3.org/2000/svg" width="100%" height="100%" viewBox="0 0 267 65" fill="none" preserveAspectRatio="xMidYMid meet" aria-hidden="true" role="img">
              <rect width="64.8493" height="64.8493" rx="9.17061" fill="#00ABE4"></rect>
              <path opacity="0.5" fill-rule="evenodd" clip-rule="evenodd" d="M25.2998 48.651C20.1844 44.8367 14.1787 40.3547 14.1787 32.5885C14.1787 24.015 24.195 17.9344 32.3901 26.1781C40.5852 17.9344 50.6015 24.015 50.6015 32.5885C50.6015 40.3547 44.5958 44.8367 39.4804 48.651C38.9502 49.0476 38.4282 49.4361 37.9223 49.8206C36.0324 51.2633 34.2112 52.6231 32.3901 52.6231C30.569 52.6231 28.7478 51.2633 26.8579 49.8206C26.352 49.4361 25.8299 49.0476 25.2998 48.651Z" fill="white"></path>
              <path d="M32.3899 30.8706C32.7924 30.8706 33.1784 31.0305 33.463 31.3151C33.7477 31.5997 33.9075 31.9857 33.9075 32.3882V37.4469C33.9075 37.8494 33.7477 38.2355 33.463 38.5201C33.1784 38.8047 32.7924 38.9646 32.3899 38.9646C31.9874 38.9646 31.6014 38.8047 31.3168 38.5201C31.0322 38.2355 30.8723 37.8494 30.8723 37.4469V32.3882C30.8723 31.9857 31.0322 31.5997 31.3168 31.3151C31.6014 31.0305 31.9874 30.8706 32.3899 30.8706ZM23.7901 22.2708C23.7901 19.2254 24.6946 17.1332 26.0949 15.7956C27.5052 14.4439 29.6157 13.671 32.3899 13.671C35.1621 13.671 37.2746 14.4439 38.685 15.7956C40.0853 17.1332 40.9898 19.2254 40.9898 22.2708C42.0268 22.2956 43.0525 22.4945 44.025 22.8556V22.2708C44.025 18.6103 42.9202 15.6439 40.7834 13.6002C38.6587 11.5686 35.7125 10.6357 32.3899 10.6357C29.0674 10.6357 26.1212 11.5686 23.9965 13.6002C21.8597 15.6439 20.7549 18.6103 20.7549 22.2708V22.8576C21.7271 22.4952 22.7528 22.2969 23.7901 22.2708Z" fill="white"></path>
              <path d="M92.0744 17.0892C89.9068 17.0892 89.2724 17.7236 89.2724 20.5785V23.962H94.2948V28.2443H89.2724V50.9246H84.0385V28.2443H80.3378V23.962H84.0385V20.6842C84.0385 14.4458 86.629 12.754 91.017 12.754C92.0215 12.754 92.8145 12.8598 94.2948 13.0713V17.2478C93.2375 17.1421 92.8145 17.0892 92.0744 17.0892ZM109.309 23.3276C110.26 23.3276 111.001 23.3805 111.794 23.4862V28.4558C111.159 28.35 110.683 28.2972 110.049 28.2972C105.344 28.2972 101.96 31.8393 101.96 36.9675V50.9246H96.7792V23.962H101.96V29.0902H102.066C103.493 25.7066 105.661 23.3276 109.309 23.3276ZM137.972 36.8617C137.972 37.6019 137.972 38.3949 137.919 38.8178H117.195C117.301 43.3116 119.944 47.4882 125.284 47.4882C130.042 47.4882 131.892 44.4218 132.368 42.6243H137.655C136.228 47.8054 132.263 51.7176 125.178 51.7176C116.614 51.7176 111.856 45.6378 111.856 37.3904C111.856 28.9316 116.931 23.1161 125.178 23.1161C133.373 23.1161 137.972 28.5086 137.972 36.8617ZM117.195 34.747H132.58C132.58 30.5176 129.619 27.3455 125.02 27.3455C120.685 27.3455 117.512 30.3061 117.195 34.747ZM155.724 23.169C160.694 23.169 164.712 26.0239 164.712 32.2094V50.9246H159.531V33.6368C159.531 30.0418 157.945 27.6099 154.033 27.6099C149.592 27.6099 146.737 30.3061 146.737 34.377V50.9246H141.556V23.962H146.737V27.3455H146.842C148.27 25.2837 151.072 23.169 155.724 23.169Z" fill="#00ABE4"></path>
              <path d="M188.552 27.1341V23.962H193.733V48.8099C193.733 56.9515 188.817 60.5994 181.098 60.5994C173.379 60.5994 169.52 56.8986 168.991 52.0348H174.384C174.912 54.4667 176.71 56.3699 181.098 56.3699C186.015 56.3699 188.552 54.2024 188.552 49.1271V45.4792H188.447C186.966 47.6468 184.481 49.55 180.146 49.55C173.432 49.55 168.251 45.0034 168.251 36.3859C168.251 27.7156 173.432 23.169 180.146 23.169C184.481 23.169 186.966 25.2308 188.447 27.1341H188.552ZM181.098 45.2677C185.75 45.2677 188.499 42.2543 188.499 36.3859C188.499 30.4647 185.75 27.5042 181.098 27.5042C176.023 27.5042 173.644 31.3106 173.644 36.3859C173.644 41.4612 176.023 45.2677 181.098 45.2677ZM206.177 51.6647C200.785 51.6647 197.349 48.5455 197.349 43.946C197.349 37.9191 201.895 36.1216 208.609 34.8528C212.839 34.0598 215.429 33.5311 215.429 30.8877C215.429 28.9316 214.266 27.2927 210.301 27.2927C205.596 27.2927 204.168 28.773 203.904 32.368H198.617C198.882 27.1869 202.265 23.1161 210.513 23.1161C216.064 23.1161 220.505 25.4423 220.505 32.4209V44.7919C220.505 46.748 220.769 47.7525 221.773 47.7525C221.932 47.7525 222.091 47.7525 222.408 47.6996V50.8717C221.509 51.0832 220.61 51.1889 219.764 51.1889C217.174 51.1889 215.799 50.1844 215.482 47.1181H215.376C213.632 49.9201 210.565 51.6647 206.177 51.6647ZM207.341 47.4882C211.993 47.4882 215.429 45.1091 215.429 40.4039V36.5445C214.583 37.3376 212.257 37.9191 209.508 38.5006C204.75 39.4523 202.741 40.774 202.741 43.5759C202.741 46.1136 204.116 47.4882 207.341 47.4882ZM235.439 46.9595C236.338 46.9595 236.761 46.9066 237.659 46.748V50.9246C236.338 51.1889 235.492 51.2418 234.382 51.2418C229.941 51.2418 227.244 49.55 227.244 43.3116V28.2443H223.332V23.962H227.244V15.2917H232.425V23.962H237.606V28.2443H232.425V43.4702C232.425 46.3251 233.218 46.9595 235.439 46.9595ZM265.299 36.8617C265.299 37.6019 265.299 38.3949 265.246 38.8178H244.522C244.628 43.3116 247.271 47.4882 252.611 47.4882C257.369 47.4882 259.219 44.4218 259.695 42.6243H264.982C263.554 47.8054 259.589 51.7176 252.505 51.7176C243.94 51.7176 239.182 45.6378 239.182 37.3904C239.182 28.9316 244.258 23.1161 252.505 23.1161C260.699 23.1161 265.299 28.5086 265.299 36.8617ZM244.522 34.747H259.906C259.906 30.5176 256.946 27.3455 252.346 27.3455C248.011 27.3455 244.839 30.3061 244.522 34.747Z" fill="#FEFEFE"></path>
            </svg>